<?xml version="1.0" encoding="utf-8"?>
<!-- Generator: Adobe Illustrator 26.3.1, SVG Export Plug-In . SVG Version: 6.00 Build 0)  -->
<svg version="1.1" id="Layer_1" xmlns="http://www.w3.org/2000/svg" xmlns:xlink="http://www.w3.org/1999/xlink" x="0px" y="0px"
	 viewBox="0 0 615.39 194.48" style="enable-background:new 0 0 615.39 194.48;" xml:space="preserve">
<style type="text/css">
	.st0{fill:#00A759;}
	.st1{fill:#FFFFFF;}
	.st2{fill:none;}
</style>
<g>
	<g>
		<g>
			<g>
				<rect x="498.54" y="96.84" class="st0" width="77.28" height="39.57"/>
			</g>
		</g>
	</g>
	<g>
		<path class="st1" d="M511.56,126.67c-1.57-1.77-2.35-4.51-2.35-8.23v-11.01c0-0.81-0.58-1.5-1.38-1.63l-1.02-0.17v-1.69h8.3v1.69
			l-0.9,0.18c-0.72,0.15-1.24,0.79-1.24,1.53v11.47c0,3.07,0.55,5.27,1.64,6.63c1.09,1.35,2.66,2.03,4.72,2.03
			c2.05,0,3.59-0.72,4.61-2.16c1.03-1.44,1.54-3.54,1.54-6.29v-11.6c0-0.78-0.55-1.46-1.31-1.62l-0.8-0.17v-1.69h7.15v1.69
			l-1.04,0.17c-0.82,0.14-1.43,0.85-1.43,1.68v11.36c0,3.52-0.83,6.14-2.5,7.88s-3.89,2.6-6.66,2.6
			C515.57,129.32,513.13,128.44,511.56,126.67z"/>
		<path class="st1" d="M555.37,129.2c-0.92-0.2-1.93-0.51-3.04-0.81c-0.71-0.19-1.52-0.41-1.52-0.41l0.27-6.12h2.16
			c0,0,0.05,3.72,0.57,4.39c0.27,0.35,1.01,0.68,1.88,0.96s1.82,0.42,2.86,0.42c1.71,0,3.01-0.38,3.9-1.15
			c0.89-0.77,1.34-1.83,1.34-3.18c0-0.88-0.24-1.63-0.73-2.27c-0.48-0.63-1.13-1.17-1.93-1.62c-0.8-0.45-1.9-0.98-3.3-1.59
			c-1.26-0.56-2.36-1.14-3.3-1.72c-0.94-0.59-1.75-1.37-2.43-2.35c-0.69-0.98-1.03-2.16-1.03-3.53c0-1.24,0.33-2.35,1-3.33
			c0.66-0.98,1.62-1.75,2.87-2.32c1.25-0.56,2.71-0.85,4.38-0.85c1.04,0,1.95,0.08,2.76,0.24c0.8,0.16,1.71,0.37,2.72,0.64
			c0.47,0.15,1.15,0.3,1.15,0.3l-0.2,5.68h-2.06c0,0,0.03-3.47-0.68-4.16c-0.24-0.24-0.69-0.44-1.4-0.64s-1.48-0.3-2.32-0.3
			c-1.55,0-2.73,0.33-3.53,0.98c-0.8,0.65-1.2,1.6-1.2,2.84c0,0.9,0.24,1.66,0.73,2.27c0.48,0.61,1.09,1.13,1.81,1.56
			s1.87,1.01,3.45,1.76c1.46,0.7,2.66,1.33,3.58,1.89c0.92,0.56,1.72,1.3,2.38,2.21c0.66,0.91,1,2,1,3.26c0,1.2-0.33,2.34-1,3.45
			c-0.66,1.1-1.68,2.01-3.04,2.72c-1.36,0.71-3.01,1.06-4.95,1.06C557.34,129.51,556.29,129.4,555.37,129.2z"/>
		<g>
			<path class="st1" d="M547.22,112.43c-0.71-1.17-1.69-2.09-2.95-2.76c-1.26-0.67-3.32-1-5-1h-5.11h-1.49v1.21
				c0,0,1.49,0,1.49,0.83c0,0-0.03,3.72-0.03,5.91c0,2.18,0.03,5.93,0.03,5.93c0,0.69-1.49,0.82-1.49,0.82v1.2h6.69
				c1.67,0,3.72-0.34,4.97-1.01c1.25-0.67,2.22-1.6,2.91-2.77c0.69-1.18,1.03-2.51,1.03-4v-0.32
				C548.28,114.95,547.93,113.6,547.22,112.43z M545.5,116.75c0,1.26-0.26,2.39-0.79,3.38c-0.52,0.99-1.26,1.78-2.21,2.34
				c-0.95,0.57-2.51,0.85-3.78,0.85h-2.11v-13.44h2.04c1.28,0,2.84,0.28,3.8,0.85c0.96,0.57,1.71,1.34,2.24,2.34
				c0.54,0.99,0.81,2.13,0.81,3.41L545.5,116.75L545.5,116.75z"/>
		</g>
	</g>
</g>
<rect class="st2" width="615.39" height="194.48"/>
<g>
	<path d="M151.76,86.83h-1.85c-0.2,0-0.37-0.07-0.5-0.2s-0.19-0.32-0.19-0.52V70.52c0-0.2,0.06-0.38,0.19-0.52
		c0.14-0.14,0.31-0.2,0.5-0.2h1.85c0.2,0,0.37,0.06,0.51,0.2c0.13,0.15,0.2,0.32,0.2,0.52v15.59c0,0.2-0.07,0.39-0.2,0.52
		C152.13,86.77,151.96,86.83,151.76,86.83"/>
	<path d="M166.81,77.41v8.7c0,0.2-0.07,0.39-0.2,0.52c-0.14,0.14-0.31,0.2-0.52,0.2h-1.83c-0.19,0-0.36-0.06-0.5-0.2
		c-0.13-0.14-0.21-0.32-0.21-0.52V70.15c0-0.19,0.11-0.31,0.29-0.35c0.2-0.04,0.37,0,0.51,0.12l10.24,9.68
		c0.16,0.15,0.29,0.2,0.39,0.15c0.1-0.04,0.15-0.17,0.15-0.38v-8.85c0-0.21,0.08-0.38,0.22-0.52s0.31-0.2,0.51-0.2h1.81
		c0.2,0,0.38,0.06,0.51,0.2c0.14,0.15,0.21,0.32,0.21,0.52v15.92c0,0.2-0.09,0.32-0.3,0.36c-0.19,0.03-0.37,0-0.52-0.12l-10.21-9.52
		c-0.16-0.13-0.28-0.17-0.39-0.12C166.86,77.08,166.81,77.21,166.81,77.41"/>
	<path d="M188.7,84.02l0.97-1.44c0.13-0.18,0.27-0.27,0.45-0.3c0.2-0.04,0.36,0,0.54,0.12c0.7,0.43,1.39,0.79,2.06,1.11
		c0.88,0.43,1.84,0.65,2.88,0.65c0.52,0,0.99-0.07,1.4-0.21c0.37-0.11,0.72-0.28,1.03-0.51c0.27-0.22,0.49-0.45,0.61-0.72
		c0.15-0.26,0.21-0.51,0.21-0.79c0-0.33-0.1-0.63-0.33-0.88c-0.19-0.23-0.47-0.42-0.83-0.59c-0.18-0.08-0.36-0.16-0.56-0.22
		c-0.19-0.07-0.42-0.13-0.68-0.19c-0.23-0.07-0.47-0.12-0.7-0.17c-0.24-0.04-0.49-0.09-0.76-0.14c-0.17-0.03-0.37-0.06-0.57-0.1
		c-0.21-0.05-0.41-0.1-0.63-0.14c-0.45-0.06-0.91-0.18-1.4-0.35c-0.49-0.14-0.96-0.34-1.42-0.58c-0.47-0.23-0.89-0.54-1.27-0.91
		c-0.36-0.34-0.66-0.78-0.91-1.31c-0.2-0.51-0.31-1.11-0.31-1.77c0-0.99,0.2-1.81,0.61-2.5c0.38-0.64,0.89-1.16,1.53-1.56
		c0.61-0.36,1.31-0.62,2.1-0.8c0.73-0.15,1.48-0.23,2.24-0.23c0.71,0,1.35,0.06,1.91,0.14c0.28,0.05,0.55,0.11,0.8,0.18
		c0.26,0.06,0.51,0.14,0.76,0.21c0.25,0.1,0.48,0.2,0.74,0.32c0.22,0.11,0.43,0.24,0.66,0.36c0.16,0.1,0.31,0.2,0.46,0.27
		c0.12,0.1,0.28,0.19,0.45,0.28c0.16,0.12,0.27,0.29,0.3,0.47c0.03,0.19-0.01,0.36-0.14,0.54l-0.98,1.41
		c-0.12,0.18-0.28,0.27-0.49,0.29c-0.18,0.04-0.36-0.01-0.53-0.11c-0.61-0.38-1.18-0.69-1.72-0.87c-0.73-0.31-1.53-0.45-2.36-0.45
		c-0.14,0-0.29,0.01-0.46,0.03c-0.17,0.01-0.33,0.04-0.5,0.06c-0.36,0.08-0.7,0.2-1.03,0.36c-0.16,0.07-0.3,0.16-0.42,0.24
		c-0.14,0.09-0.26,0.21-0.37,0.33c-0.2,0.24-0.3,0.55-0.3,0.89s0.13,0.62,0.37,0.86c0.24,0.24,0.56,0.43,0.94,0.59
		c0.21,0.09,0.42,0.15,0.63,0.21s0.43,0.12,0.66,0.19c0.24,0.06,0.46,0.11,0.69,0.16c0.22,0.05,0.45,0.1,0.67,0.17
		c0.17,0.02,0.34,0.07,0.53,0.12c0.18,0.04,0.38,0.08,0.62,0.11c0.2,0.03,0.43,0.07,0.66,0.13c0.25,0.05,0.48,0.12,0.7,0.2
		c0.14,0.03,0.26,0.06,0.39,0.11s0.26,0.11,0.4,0.14c0.18,0.07,0.39,0.18,0.63,0.3c0.25,0.13,0.45,0.25,0.61,0.37
		c0.13,0.08,0.25,0.16,0.35,0.25c0.11,0.08,0.21,0.17,0.3,0.27c0.38,0.4,0.68,0.83,0.89,1.35c0.24,0.54,0.34,1.2,0.34,1.97
		c0,0.86-0.17,1.62-0.47,2.31c-0.31,0.64-0.76,1.18-1.33,1.6c-0.59,0.45-1.28,0.78-2.05,0.97c-0.83,0.22-1.7,0.33-2.65,0.33
		c-0.9,0-1.68-0.07-2.35-0.21c-0.63-0.11-1.26-0.28-1.85-0.54c-0.27-0.11-0.54-0.23-0.81-0.36c-0.27-0.14-0.53-0.29-0.77-0.43
		c-0.16-0.1-0.3-0.19-0.47-0.29c-0.16-0.11-0.32-0.21-0.49-0.34c-0.16-0.11-0.27-0.26-0.3-0.45
		C188.55,84.37,188.59,84.18,188.7,84.02"/>
	<path d="M223.25,72.65h-3.43c-0.2,0-0.38,0.07-0.51,0.2c-0.14,0.15-0.21,0.31-0.21,0.53v12.73c0,0.2-0.07,0.39-0.21,0.52
		c-0.14,0.14-0.32,0.2-0.51,0.2h-1.83c-0.2,0-0.37-0.06-0.5-0.2c-0.14-0.13-0.21-0.32-0.21-0.52V73.39c0-0.22-0.07-0.38-0.21-0.53
		c-0.13-0.13-0.31-0.2-0.51-0.2h-3.46c-0.2,0-0.37-0.08-0.51-0.2c-0.13-0.14-0.21-0.32-0.21-0.52v-1.45c0-0.21,0.07-0.37,0.21-0.51
		s0.31-0.22,0.51-0.22h11.61c0.2,0,0.37,0.08,0.51,0.22s0.2,0.3,0.2,0.51v1.45c0,0.2-0.07,0.38-0.2,0.52
		C223.62,72.57,223.45,72.65,223.25,72.65"/>
	<path d="M236.09,86.83h-1.84c-0.21,0-0.37-0.07-0.51-0.2c-0.13-0.13-0.2-0.32-0.2-0.52V70.52c0-0.2,0.07-0.38,0.2-0.52
		c0.14-0.14,0.3-0.2,0.51-0.2h1.84c0.19,0,0.37,0.06,0.51,0.2c0.14,0.15,0.2,0.32,0.2,0.52v15.59c0,0.2-0.06,0.39-0.2,0.52
		C236.46,86.77,236.28,86.83,236.09,86.83"/>
	<path d="M259.41,72.65h-3.42c-0.21,0-0.38,0.07-0.53,0.2c-0.13,0.15-0.2,0.31-0.2,0.53v12.73c0,0.2-0.07,0.39-0.21,0.52
		c-0.14,0.14-0.31,0.2-0.52,0.2h-1.82c-0.2,0-0.38-0.06-0.52-0.2c-0.14-0.13-0.2-0.32-0.2-0.52V73.39c0-0.22-0.08-0.38-0.21-0.53
		c-0.14-0.13-0.32-0.2-0.52-0.2h-3.45c-0.2,0-0.38-0.08-0.51-0.2c-0.14-0.14-0.22-0.32-0.22-0.52v-1.45c0-0.21,0.07-0.37,0.22-0.51
		c0.13-0.14,0.31-0.22,0.51-0.22h11.59c0.2,0,0.37,0.08,0.52,0.22c0.13,0.14,0.21,0.3,0.21,0.51v1.45c0,0.2-0.07,0.38-0.21,0.52
		C259.78,72.57,259.61,72.65,259.41,72.65"/>
	<path d="M273.56,86.63c-0.94-0.36-1.71-0.84-2.3-1.45c-0.66-0.61-1.16-1.37-1.5-2.26c-0.34-0.87-0.52-1.86-0.52-2.96v-9.44
		c0-0.21,0.07-0.38,0.22-0.52c0.13-0.14,0.3-0.2,0.48-0.2h1.85c0.2,0,0.38,0.06,0.51,0.2c0.15,0.15,0.22,0.32,0.22,0.52v9.42
		c0,0.85,0.13,1.56,0.4,2.13c0.28,0.54,0.64,0.98,1.03,1.33c0.44,0.34,0.88,0.56,1.34,0.67c0.25,0.06,0.48,0.11,0.69,0.14
		c0.2,0.03,0.4,0.06,0.59,0.06c0.33,0,0.75-0.08,1.26-0.2c0.48-0.11,0.92-0.34,1.33-0.67c0.42-0.32,0.77-0.79,1.05-1.33
		c0.27-0.56,0.41-1.27,0.41-2.13v-9.42c0-0.21,0.07-0.38,0.21-0.52c0.13-0.14,0.32-0.2,0.51-0.2h1.82c0.21,0,0.37,0.06,0.51,0.2
		c0.14,0.15,0.21,0.32,0.21,0.52v9.44c0,0.55-0.04,1.06-0.12,1.56c-0.09,0.48-0.22,0.95-0.39,1.4c-0.34,0.88-0.83,1.63-1.46,2.26
		c-0.63,0.62-1.4,1.09-2.32,1.45c-0.89,0.34-1.89,0.52-3.03,0.52C275.42,87.15,274.42,86.97,273.56,86.63"/>
	<path d="M306.02,72.65h-3.42c-0.2,0-0.37,0.07-0.52,0.2c-0.14,0.15-0.22,0.31-0.22,0.53v12.73c0,0.2-0.07,0.39-0.21,0.52
		c-0.12,0.14-0.3,0.2-0.5,0.2h-1.83c-0.2,0-0.37-0.06-0.52-0.2c-0.13-0.13-0.2-0.32-0.2-0.52V73.39c0-0.22-0.07-0.38-0.22-0.53
		c-0.14-0.13-0.32-0.2-0.52-0.2h-3.45c-0.19,0-0.37-0.08-0.51-0.2c-0.14-0.14-0.2-0.32-0.2-0.52v-1.45c0-0.21,0.06-0.37,0.2-0.51
		s0.32-0.22,0.51-0.22h11.6c0.2,0,0.39,0.08,0.52,0.22c0.13,0.14,0.2,0.3,0.2,0.51v1.45c0,0.2-0.07,0.38-0.2,0.52
		C306.41,72.57,306.22,72.65,306.02,72.65"/>
</g>
<g>
	<path d="M191.99,98.1c-0.12,0-0.27,0.03-0.44,0.2c-0.14,0.14-0.21,0.29-0.21,0.5v22.03c0,2.44,0.38,4.65,1.13,6.56
		c0.75,1.92,1.85,3.58,3.25,4.92c1.33,1.33,3.02,2.39,5.06,3.16c1.92,0.75,4.16,1.14,6.68,1.14c2.5,0,4.77-0.39,6.71-1.14
		c2-0.77,3.7-1.84,5.05-3.16c1.38-1.36,2.45-3.02,3.19-4.92c0.37-0.99,0.66-2.02,0.84-3.11c0.2-1.08,0.3-2.23,0.3-3.45V98.8
		c0-0.2-0.07-0.36-0.21-0.5s-0.29-0.2-0.51-0.2h-4.24c-0.22,0-0.36,0.05-0.51,0.2c-0.15,0.14-0.2,0.29-0.2,0.5v21.98
		c0,2.14-0.36,3.96-1.08,5.39c-0.71,1.42-1.62,2.58-2.72,3.44c-1.04,0.87-2.22,1.48-3.48,1.75c-1.21,0.3-2.28,0.47-3.15,0.47
		c-0.49,0-1-0.04-1.54-0.12c-0.51-0.08-1.09-0.2-1.71-0.36c-1.17-0.27-2.33-0.87-3.46-1.75c-1.07-0.9-1.95-2.04-2.66-3.43
		c-0.74-1.45-1.1-3.26-1.1-5.4V98.8c0-0.2-0.06-0.36-0.21-0.5c-0.13-0.15-0.29-0.2-0.5-0.2C196.27,98.1,191.99,98.1,191.99,98.1z"/>
	<path d="M260.92,131.64l1.65,3.28c0.13,0.31,0.33,0.52,0.61,0.71c0.32,0.18,0.61,0.28,0.9,0.28h4.95h0.01l-0.02-0.04l-18.87-37.71
		c-0.08-0.17-0.34-0.17-0.43,0l-18.87,37.71l5,0.04c0.28,0,0.56-0.09,0.86-0.27c0.3-0.2,0.51-0.43,0.67-0.71l1.56-3.2l9.41-18.65
		c0.44-1.04,1.18-1.2,1.59-1.2c0.4,0,1.15,0.16,1.6,1.25L260.92,131.64"/>
	<path d="M276.34,98.09l-0.01,37.11c0,0.21,0.06,0.36,0.21,0.51c0.18,0.18,0.32,0.2,0.45,0.2h4.3c0.2,0,0.36-0.05,0.5-0.19
		c0.14-0.16,0.2-0.3,0.2-0.52v-20.29c0-1.11,0.5-1.57,0.92-1.76c0.58-0.26,1.25-0.14,1.92,0.39l23.9,22.26
		c0.07,0.06,0.19,0.06,0.24,0.07V98.8c0-0.21-0.06-0.36-0.2-0.5c-0.14-0.15-0.29-0.2-0.5-0.2h-4.24c-0.21,0-0.37,0.05-0.5,0.2
		c-0.15,0.14-0.21,0.29-0.21,0.5v20.68c0,1.12-0.51,1.57-0.93,1.77l-0.19,0.09l-0.41,0.03c-0.45,0-0.89-0.2-1.36-0.62l-23.91-22.6
		C276.46,98.1,276.41,98.09,276.34,98.09"/>
	<path d="M318.55,98.04c-0.2,0-0.36,0.06-0.5,0.21c-0.15,0.15-0.2,0.28-0.2,0.5v3.38c0,0.2,0.06,0.35,0.2,0.5
		c0.13,0.13,0.29,0.21,0.5,0.21h8.05c0.73,0,1.39,0.26,1.89,0.76s0.78,1.17,0.78,1.89v29.71c0,0.21,0.06,0.36,0.2,0.51
		c0.15,0.15,0.29,0.2,0.51,0.2h4.24c0.22,0,0.36-0.06,0.51-0.2c0.14-0.15,0.19-0.29,0.19-0.51v-29.71c0-0.72,0.28-1.39,0.78-1.89
		s1.17-0.76,1.88-0.76h8.02c0.2,0,0.35-0.08,0.49-0.21c0.15-0.15,0.21-0.31,0.21-0.5v-3.38c0-0.22-0.06-0.35-0.21-0.5
		c-0.14-0.15-0.29-0.21-0.49-0.21H318.55z"/>
	<path d="M355.23,98.1c-0.26,0-0.37,0.09-0.46,0.18c-0.14,0.14-0.2,0.29-0.2,0.51v36.4c0,0.23,0.06,0.39,0.2,0.52
		c0.09,0.11,0.2,0.18,0.46,0.18h4.3c0.21,0,0.36-0.07,0.51-0.2c0.13-0.15,0.19-0.29,0.19-0.51V98.8c0-0.2-0.05-0.36-0.19-0.5
		c-0.15-0.14-0.3-0.2-0.51-0.2C359.53,98.1,355.23,98.1,355.23,98.1z"/>
	<path d="M414.1,98.1c-0.13,0-0.27,0.03-0.44,0.2c-0.14,0.14-0.21,0.29-0.21,0.5v22.03c0,2.44,0.38,4.65,1.13,6.56
		c0.74,1.92,1.83,3.58,3.25,4.92c1.32,1.33,3.01,2.39,5.06,3.16c1.91,0.75,4.15,1.14,6.67,1.14c2.5,0,4.78-0.39,6.71-1.14
		c2-0.77,3.71-1.84,5.05-3.16c1.37-1.36,2.46-3.02,3.2-4.92c0.36-0.99,0.65-2.02,0.84-3.11c0.19-1.08,0.28-2.23,0.28-3.45V98.8
		c0-0.2-0.06-0.36-0.2-0.5c-0.13-0.14-0.28-0.2-0.5-0.2h-4.24c-0.23,0-0.37,0.05-0.51,0.2c-0.14,0.14-0.21,0.29-0.21,0.5v21.98
		c0,2.14-0.35,3.96-1.07,5.39c-0.72,1.42-1.63,2.58-2.73,3.44c-1.03,0.87-2.22,1.48-3.48,1.75c-1.21,0.3-2.28,0.47-3.15,0.47
		c-0.49,0-1.01-0.04-1.54-0.12c-0.52-0.08-1.08-0.2-1.7-0.36c-1.17-0.27-2.35-0.87-3.46-1.75c-1.06-0.9-1.96-2.04-2.66-3.43
		c-0.73-1.45-1.09-3.26-1.09-5.4V98.8c0-0.2-0.07-0.36-0.19-0.5c-0.15-0.15-0.3-0.2-0.52-0.2C418.39,98.1,414.1,98.1,414.1,98.1z"/>
	<path d="M455.01,97.85c-0.21,0-0.36,0.05-0.5,0.2c-0.15,0.15-0.21,0.3-0.21,0.5v36.2c0,0.22,0.06,0.35,0.2,0.49
		c0.14,0.16,0.29,0.21,0.5,0.21h25.77c0.2,0,0.36-0.05,0.5-0.21c0.14-0.14,0.19-0.28,0.19-0.49v-3.46c0-0.21-0.05-0.36-0.19-0.5
		s-0.3-0.2-0.5-0.2h-18.21c-0.73,0-1.37-0.27-1.88-0.77c-0.5-0.51-0.78-1.16-0.78-1.88V122c0-0.73,0.27-1.37,0.78-1.88
		c0.51-0.51,1.15-0.76,1.88-0.76h15.78c0.21,0,0.36-0.06,0.49-0.21c0.14-0.14,0.2-0.3,0.2-0.5v-3.51c0-0.21-0.06-0.36-0.2-0.5
		c-0.14-0.13-0.29-0.19-0.49-0.19h-15.78c-0.73,0-1.37-0.28-1.88-0.78c-0.5-0.5-0.78-1.15-0.78-1.87v-6.54
		c0-0.72,0.27-1.37,0.78-1.87c0.51-0.51,1.15-0.78,1.88-0.78h18.21c0.2,0,0.36-0.06,0.5-0.2s0.19-0.28,0.19-0.5v-3.35
		c0-0.2-0.05-0.35-0.19-0.5c-0.14-0.14-0.3-0.2-0.5-0.2h-25.76V97.85z"/>
	<path d="M179.34,106.39c-0.75-1.92-1.85-3.58-3.25-4.92c-1.33-1.33-3.02-2.39-5.06-3.16c-1.92-0.75-4.16-1.14-6.68-1.14
		c-2.51,0-4.77,0.38-6.71,1.14c-2,0.77-3.7,1.84-5.06,3.16c-1.38,1.36-2.45,3.02-3.19,4.92c-0.37,0.99-0.66,2.02-0.84,3.11
		c-0.2,1.07-0.3,2.23-0.3,3.45v1.13v4.46v2.3c0,2.44,0.39,4.65,1.13,6.57c0.75,1.92,1.85,3.58,3.25,4.92
		c1.33,1.33,3.02,2.39,5.06,3.16c1.18,0.46,2.49,0.77,3.89,0.95v3.71c0,0.67,0.55,1.22,1.22,1.22h3.58c0.67,0,1.22-0.54,1.22-1.22
		v-3.76c1.25-0.19,2.42-0.48,3.48-0.89c2-0.77,3.7-1.84,5.06-3.16c1.38-1.37,2.45-3.03,3.19-4.92c0.37-0.99,0.66-2.02,0.84-3.11
		c0.2-1.08,0.3-2.23,0.3-3.45v-2.3v-4.46v-1.13C180.47,110.51,180.09,108.3,179.34,106.39 M174.81,114.08v4.46v2.25
		c0,2.14-0.36,3.96-1.08,5.39c-0.71,1.43-1.62,2.58-2.72,3.44c-1.04,0.87-2.22,1.48-3.49,1.75c-1.21,0.3-2.28,0.47-3.15,0.47
		c-0.49,0-1-0.04-1.54-0.12c-0.51-0.08-1.09-0.2-1.71-0.36c-1.17-0.27-2.33-0.87-3.46-1.75c-1.07-0.9-1.95-2.04-2.66-3.43
		c-0.73-1.45-1.09-3.26-1.09-5.4v-2.25v-4.46V113c0-2.14,0.36-3.96,1.08-5.39c0.71-1.43,1.62-2.58,2.72-3.44
		c1.04-0.87,2.22-1.48,3.49-1.75c1.21-0.3,2.27-0.47,3.15-0.47c0.49,0,1,0.04,1.54,0.12c0.51,0.08,1.09,0.2,1.7,0.35
		c1.17,0.27,2.33,0.87,3.46,1.75c1.07,0.9,1.95,2.04,2.66,3.43c0.73,1.45,1.09,3.26,1.09,5.4v1.08H174.81z"/>
	<path d="M402.05,106.39c-0.75-1.92-1.85-3.58-3.25-4.92c-1.33-1.33-3.02-2.39-5.06-3.16c-1.92-0.75-4.16-1.14-6.68-1.14
		c-2.5,0-4.77,0.38-6.71,1.14c-2,0.77-3.7,1.84-5.06,3.16c-1.38,1.36-2.45,3.02-3.19,4.92c-0.37,0.99-0.66,2.02-0.84,3.11
		c-0.2,1.07-0.3,2.23-0.3,3.45v1.13v4.46v2.3c0,2.44,0.39,4.65,1.13,6.57c0.75,1.92,1.85,3.58,3.25,4.92
		c1.33,1.33,3.02,2.39,5.06,3.16c1.18,0.46,2.49,0.77,3.89,0.95v3.71c0,0.67,0.54,1.22,1.22,1.22h3.58c0.67,0,1.21-0.54,1.21-1.22
		v-3.76c1.25-0.19,2.42-0.48,3.48-0.89c2-0.77,3.7-1.84,5.06-3.16c1.38-1.37,2.45-3.03,3.19-4.92c0.37-0.99,0.66-2.02,0.84-3.11
		c0.2-1.08,0.3-2.23,0.3-3.45v-2.3v-4.46v-1.13C403.18,110.51,402.8,108.3,402.05,106.39 M397.52,114.08v4.46v2.25
		c0,2.14-0.36,3.96-1.09,5.39c-0.71,1.43-1.62,2.58-2.72,3.44c-1.03,0.87-2.22,1.48-3.48,1.75c-1.21,0.3-2.28,0.47-3.15,0.47
		c-0.49,0-1-0.04-1.54-0.12c-0.51-0.08-1.09-0.2-1.71-0.36c-1.17-0.27-2.33-0.87-3.46-1.75c-1.07-0.9-1.95-2.04-2.66-3.43
		c-0.73-1.45-1.09-3.26-1.09-5.4v-2.25v-4.46V113c0-2.14,0.36-3.96,1.08-5.39c0.71-1.43,1.62-2.58,2.72-3.44
		c1.04-0.87,2.22-1.48,3.49-1.75c1.21-0.3,2.28-0.47,3.15-0.47c0.49,0,1,0.04,1.54,0.12c0.51,0.08,1.09,0.2,1.71,0.35
		c1.17,0.27,2.33,0.87,3.46,1.75c1.07,0.9,1.95,2.04,2.66,3.43c0.73,1.45,1.1,3.26,1.1,5.4L397.52,114.08L397.52,114.08z"/>
</g>
<g>
	<g>
		<g>
			<path class="st0" d="M78.67,91.05v22.96c0,12.67,3.9,16.35,11.91,16.35s11.91-3.68,11.91-16.35V91.05
				c0-12.67-3.9-16.35-11.91-16.35C82.57,74.7,78.67,78.38,78.67,91.05"/>
			<path class="st0" d="M41.43,62.9c-1.02,0-1.86,0.84-1.86,1.86v9.81c0,1.02,0.83,1.86,1.86,1.86h8.69v63.87
				c0,1.02,0.83,1.86,1.86,1.86h32.35c-12.91-2.32-19.95-12.05-19.95-26.53v-26.2c0-14.48,7.04-24.22,19.95-26.53
				C84.33,62.9,41.43,62.9,41.43,62.9z"/>
			<path class="st0" d="M96.84,62.9c12.91,2.31,19.94,12.05,19.94,26.53v26.2c0,14.48-7.03,24.21-19.94,26.53h32.35
				c1.02,0,1.85-0.84,1.85-1.86V64.76c0-1.02-0.84-1.86-1.85-1.86H96.84z"/>
			<path class="st0" d="M51.97,39.57c-1.02,0-1.86,0.84-1.86,1.86v9.82c0,1.02,0.83,1.85,1.86,1.85h9.45c1.02,0,1.86-0.84,1.86-1.85
				v-9.82c0-1.02-0.84-1.86-1.86-1.86H51.97z"/>
			<path class="st0" d="M84,142.16v10.89c0,1.02,0.84,1.86,1.86,1.86h9.46c1.02,0,1.85-0.84,1.85-1.86v-10.89H84z"/>
		</g>
	</g>
</g>
</svg>
